<svg xmlns="http://www.w3.org/2000/svg" xmlns:xlink="http://www.w3.org/1999/xlink" viewBox="0 0 180 163"><defs><style>.cls-1{fill:gray;}.cls-2{fill:url(#linear-gradient);}.cls-3{fill:#efcc00;}.cls-4{fill:#0baeff;}.cls-5{fill:none;}</style><linearGradient id="linear-gradient" x1="123.81" y1="58.01" x2="123.81" y2="121.19" gradientUnits="userSpaceOnUse"><stop offset="0" stop-color="#999"/><stop offset="0.71" stop-color="#888"/><stop offset="1" stop-color="gray"/></linearGradient></defs><g id="Layer_2" data-name="Layer 2"><g id="Layer_2-2" data-name="Layer 2"><path class="cls-1" d="M107.41,57.43a39,39,0,0,1,40.93,5.62A27.79,27.79,0,0,0,130,14.16a28.08,28.08,0,0,0-24.93,15.06A21.71,21.71,0,0,0,75.56,36,49.18,49.18,0,0,1,107.41,57.43Z"/><path class="cls-1" d="M159,93a35.1,35.1,0,0,1-35.19,35H65.31C40.29,128,20,108.07,20,83.5S40.29,39,65.31,39a45.41,45.41,0,0,1,40.26,24.07A35.24,35.24,0,0,1,159,93Z"/><ellipse class="cls-2" cx="123.81" cy="93" rx="35.19" ry="35"/><polygon class="cls-3" points="110.14 120.5 105.97 144.44 114.3 144.44 110.14 162.13 129.91 137.15 120.55 137.15 128.88 120.5 110.14 120.5"/><path class="cls-4" d="M84.4,144.22a8.45,8.45,0,0,1-16.9,0c0-7.4,6.81-14.26,8.45-14.26S84.4,136.77,84.4,144.22Z"/><path class="cls-4" d="M65.4,153.22a8.45,8.45,0,0,1-16.9,0c0-7.4,6.81-14.26,8.45-14.26S65.4,145.77,65.4,153.22Z"/><path class="cls-4" d="M103.4,153.22a8.45,8.45,0,0,1-16.9,0c0-7.4,6.81-14.26,8.45-14.26S103.4,145.77,103.4,153.22Z"/><rect class="cls-5" width="180" height="163"/></g></g></svg>