<svg xmlns="http://www.w3.org/2000/svg" xmlns:xlink="http://www.w3.org/1999/xlink" viewBox="0 0 180 163"><defs><style>.cls-1{fill:#e6e6e6;}.cls-2{fill:url(#linear-gradient);}.cls-3{fill:#0baeff;}.cls-4{fill:none;}</style><linearGradient id="linear-gradient" x1="122.88" y1="60.52" x2="122.88" y2="123.67" gradientUnits="userSpaceOnUse"><stop offset="0" stop-color="#fff"/><stop offset="0.71" stop-color="#eee"/><stop offset="1" stop-color="#e6e6e6"/></linearGradient></defs><g id="Layer_2" data-name="Layer 2"><g id="Layer_2-2" data-name="Layer 2"><path class="cls-1" d="M106.91,58.93a39,39,0,0,1,40.93,5.62A27.79,27.79,0,0,0,129.5,15.66a28.08,28.08,0,0,0-24.93,15.06,21.71,21.71,0,0,0-29.51,6.73A49.18,49.18,0,0,1,106.91,58.93Z"/><path class="cls-1" d="M157.38,95.5a34.74,34.74,0,0,1-34.5,35H65.53A44.48,44.48,0,1,1,105,65.58a34,34,0,0,1,17.87-5.06A34.74,34.74,0,0,1,157.38,95.5Z"/><ellipse class="cls-2" cx="122.88" cy="95.5" rx="34.5" ry="34.98"/><path class="cls-3" d="M96.4,148.22a8.45,8.45,0,0,1-16.9,0c0-7.4,6.81-14.26,8.45-14.26S96.4,140.77,96.4,148.22Z"/><rect class="cls-4" width="180" height="163"/></g></g></svg>