<svg xmlns="http://www.w3.org/2000/svg" xmlns:xlink="http://www.w3.org/1999/xlink" viewBox="0 0 180 163"><defs><style>.cls-1{fill:gray;}.cls-2{fill:url(#linear-gradient);}.cls-3{fill:none;}</style><linearGradient id="linear-gradient" x1="121.31" y1="61.51" x2="121.31" y2="124.69" gradientUnits="userSpaceOnUse"><stop offset="0" stop-color="#999"/><stop offset="0.71" stop-color="#888"/><stop offset="1" stop-color="gray"/></linearGradient></defs><g id="Layer_2" data-name="Layer 2"><g id="Layer_2-2" data-name="Layer 2"><path class="cls-1" d="M104.91,60.93a39,39,0,0,1,40.93,5.62A27.79,27.79,0,0,0,127.5,17.66a28.08,28.08,0,0,0-24.93,15.06,21.71,21.71,0,0,0-29.51,6.73A49.18,49.18,0,0,1,104.91,60.93Z"/><path class="cls-1" d="M156.5,96.5a35.1,35.1,0,0,1-35.19,35H62.81c-25,0-45.31-19.93-45.31-44.5S37.79,42.5,62.81,42.5a45.41,45.41,0,0,1,40.26,24.07A35.24,35.24,0,0,1,156.5,96.5Z"/><ellipse class="cls-2" cx="121.31" cy="96.5" rx="35.19" ry="35"/><rect class="cls-3" width="180" height="163"/></g></g></svg>