<svg xmlns="http://www.w3.org/2000/svg" xmlns:xlink="http://www.w3.org/1999/xlink" viewBox="0 0 180 163"><defs><style>.cls-1{fill:#efcc00;}.cls-2{fill:#e6e6e6;}.cls-3{fill:url(#linear-gradient);}.cls-4{fill:url(#linear-gradient-2);}.cls-5{fill:none;}</style><linearGradient id="linear-gradient" x1="160.05" y1="17.66" x2="160.05" y2="47.89" gradientTransform="matrix(-1, 0, 0, 1, 279.26, 0)" gradientUnits="userSpaceOnUse"><stop offset="0" stop-color="#fff"/><stop offset="0.71" stop-color="#eee"/><stop offset="1" stop-color="#e6e6e6"/></linearGradient><linearGradient id="linear-gradient-2" x1="102.2" y1="70.38" x2="102.2" y2="124.02" gradientTransform="matrix(1, 0, 0, 1, 0, 0)" xlink:href="#linear-gradient"/></defs><g id="Layer_2" data-name="Layer 2"><g id="Layer_2-2" data-name="Layer 2"><ellipse class="cls-1" cx="105.74" cy="57.09" rx="31.91" ry="31.95"/><path class="cls-1" d="M80.06,26.61l-8.3-8.09a3.23,3.23,0,0,0-2.3-.94,3.29,3.29,0,0,0-2.29,5.65l8.3,8.1a3.28,3.28,0,0,0,2.3.93,3.29,3.29,0,0,0,2.29-5.65Z"/><path class="cls-1" d="M109,5.75a3.29,3.29,0,1,0-6.58.09l.15,11.6a3.31,3.31,0,0,0,3.3,3.25h0a3.28,3.28,0,0,0,2.32-1,3.33,3.33,0,0,0,.93-2.35Z"/><path class="cls-1" d="M144.2,18.4a3.3,3.3,0,0,0-4.66.07l-8.08,8.31a3.29,3.29,0,0,0,2.36,5.59,3.26,3.26,0,0,0,2.36-1l8.08-8.32A3.3,3.3,0,0,0,144.2,18.4Z"/><path class="cls-1" d="M156.92,53.72l-11.59.15a3.3,3.3,0,0,0,0,6.6h0L157,60.31a3.3,3.3,0,0,0-.09-6.59Z"/><ellipse class="cls-1" cx="105.74" cy="57.09" rx="31.91" ry="31.95"/><path class="cls-1" d="M80.06,26.61l-8.3-8.09a3.23,3.23,0,0,0-2.3-.94,3.29,3.29,0,0,0-2.29,5.65l8.3,8.1a3.28,3.28,0,0,0,2.3.93,3.29,3.29,0,0,0,2.29-5.65Z"/><path class="cls-1" d="M109,5.75a3.29,3.29,0,1,0-6.58.09l.15,11.6a3.31,3.31,0,0,0,3.3,3.25h0a3.28,3.28,0,0,0,2.32-1,3.33,3.33,0,0,0,.93-2.35Z"/><path class="cls-1" d="M144.2,18.4a3.3,3.3,0,0,0-4.66.07l-8.08,8.31a3.29,3.29,0,0,0,2.36,5.59,3.26,3.26,0,0,0,2.36-1l8.08-8.32A3.3,3.3,0,0,0,144.2,18.4Z"/><path class="cls-2" d="M102.5,34.41a16.72,16.72,0,0,0,16.71,16.74H147a21.3,21.3,0,1,0,0-42.59,21.55,21.55,0,0,0-19.12,11.52A16.71,16.71,0,0,0,102.5,34.41Z"/><ellipse class="cls-3" cx="119.21" cy="34.41" rx="16.71" ry="16.75"/><path class="cls-2" d="M131.5,100.09a29.51,29.51,0,0,1-29.3,29.71H53.48A37.78,37.78,0,1,1,87,74.68a28.85,28.85,0,0,1,15.19-4.3A29.51,29.51,0,0,1,131.5,100.09Z"/><ellipse class="cls-4" cx="102.2" cy="100.09" rx="29.3" ry="29.71"/><rect class="cls-5" width="180" height="163"/></g></g></svg>