<?xml version="1.0" encoding="UTF-8"?>
<svg id="Layer_2" data-name="Layer 2" xmlns="http://www.w3.org/2000/svg" viewBox="0 0 288.06 512">
  <g id="Layer_1-2" data-name="Layer 1">
    <path d="m257.95,279.85c-.9-1.2-1.5-2.2-1.7-2.8-.1-.3-.2-.5-.2-.6V112.02C256.05,50.11,205.94,0,144.03,0S32.01,50.21,32.01,112.02v164.53c0,.1-.1.3-.2.6-.2.6-.8,1.6-1.7,2.8C11.2,304.26,0,334.87,0,368.07c0,79.52,64.51,143.93,144.03,143.93s144.03-64.51,144.03-144.03c0-33.11-11.2-63.71-30.11-88.12Zm-113.92,168.23c-44.21,0-80.02-35.81-80.02-80.02,0-18.5,6.2-35.41,16.7-49.01,8.2-10.6,15.3-25.2,15.3-42.51V112.02c0-26.51,21.5-48.01,48.01-48.01s48.01,21.5,48.01,48.01v164.63c0,17.3,7.1,31.91,15.3,42.51,10.5,13.5,16.7,30.41,16.7,48.91,0,44.21-35.81,80.02-80.02,80.02Z"/>
  </g>
</svg>