<svg xmlns="http://www.w3.org/2000/svg" xmlns:xlink="http://www.w3.org/1999/xlink" viewBox="0 0 180 163"><defs><style>.cls-1{fill:#e6e6e6;}.cls-2{fill:url(#linear-gradient);}.cls-3{fill:#efcc00;}.cls-4{fill:#0baeff;}.cls-5{fill:none;}</style><linearGradient id="linear-gradient" x1="123.88" y1="60.52" x2="123.88" y2="123.67" gradientUnits="userSpaceOnUse"><stop offset="0" stop-color="#fff"/><stop offset="0.71" stop-color="#eee"/><stop offset="1" stop-color="#e6e6e6"/></linearGradient></defs><g id="Layer_2" data-name="Layer 2"><g id="Layer_2-2" data-name="Layer 2"><path class="cls-1" d="M107.91,58.93a39,39,0,0,1,40.93,5.62A27.79,27.79,0,0,0,130.5,15.66a28.08,28.08,0,0,0-24.93,15.06,21.71,21.71,0,0,0-29.51,6.73A49.18,49.18,0,0,1,107.91,58.93Z"/><path class="cls-1" d="M158.38,95.5a34.74,34.74,0,0,1-34.5,35H66.53A44.48,44.48,0,1,1,106,65.58a34,34,0,0,1,17.87-5.06A34.74,34.74,0,0,1,158.38,95.5Z"/><ellipse class="cls-2" cx="123.88" cy="95.5" rx="34.5" ry="34.98"/><polygon class="cls-3" points="110.14 120.5 105.97 144.44 114.3 144.44 110.14 162.13 129.91 137.15 120.55 137.15 128.88 120.5 110.14 120.5"/><path class="cls-4" d="M84.4,144.22a8.45,8.45,0,0,1-16.9,0c0-7.4,6.81-14.26,8.45-14.26S84.4,136.77,84.4,144.22Z"/><path class="cls-4" d="M65.4,153.22a8.45,8.45,0,0,1-16.9,0c0-7.4,6.81-14.26,8.45-14.26S65.4,145.77,65.4,153.22Z"/><path class="cls-4" d="M103.4,153.22a8.45,8.45,0,0,1-16.9,0c0-7.4,6.81-14.26,8.45-14.26S103.4,145.77,103.4,153.22Z"/><rect class="cls-5" width="180" height="163"/></g></g></svg>