<svg xmlns="http://www.w3.org/2000/svg" xmlns:xlink="http://www.w3.org/1999/xlink" viewBox="0 0 180 163"><defs><style>.cls-1{fill:#e6e6e6;}.cls-2{fill:url(#linear-gradient);}.cls-3{fill:#efcc00;}.cls-4{fill:#0baeff;}.cls-5{fill:none;}</style><linearGradient id="linear-gradient" x1="124.26" y1="62.55" x2="124.26" y2="125.69" gradientUnits="userSpaceOnUse"><stop offset="0" stop-color="#fff"/><stop offset="0.71" stop-color="#eee"/><stop offset="1" stop-color="#e6e6e6"/></linearGradient></defs><g id="Layer_2" data-name="Layer 2"><g id="Layer_2-2" data-name="Layer 2"><path class="cls-1" d="M158.76,97.52a34.74,34.74,0,0,1-34.5,35H66.91a44.48,44.48,0,1,1,39.47-64.89,33.93,33.93,0,0,1,17.88-5.06A34.74,34.74,0,0,1,158.76,97.52Z"/><ellipse class="cls-2" cx="124.26" cy="97.52" rx="34.5" ry="34.98"/><polygon class="cls-3" points="110.14 120.5 105.97 144.44 114.3 144.44 110.14 162.13 129.91 137.15 120.55 137.15 128.88 120.5 110.14 120.5"/><path class="cls-4" d="M84.4,144.22a8.45,8.45,0,0,1-16.9,0c0-7.4,6.81-14.26,8.45-14.26S84.4,136.77,84.4,144.22Z"/><path class="cls-4" d="M65.4,153.22a8.45,8.45,0,0,1-16.9,0c0-7.4,6.81-14.26,8.45-14.26S65.4,145.77,65.4,153.22Z"/><path class="cls-4" d="M103.4,153.22a8.45,8.45,0,0,1-16.9,0c0-7.4,6.81-14.26,8.45-14.26S103.4,145.77,103.4,153.22Z"/><rect class="cls-5" width="180" height="163"/></g></g></svg>