<svg xmlns="http://www.w3.org/2000/svg" xmlns:xlink="http://www.w3.org/1999/xlink" viewBox="0 0 180 163"><defs><style>.cls-1{fill:#e6e6e6;}.cls-2{fill:url(#linear-gradient);}.cls-3{fill:#efcc00;}.cls-4{fill:#0baeff;}.cls-5{fill:none;}</style><linearGradient id="linear-gradient" x1="121.26" y1="62.55" x2="121.26" y2="125.69" gradientUnits="userSpaceOnUse"><stop offset="0" stop-color="#fff"/><stop offset="0.71" stop-color="#eee"/><stop offset="1" stop-color="#e6e6e6"/></linearGradient></defs><g id="Layer_2" data-name="Layer 2"><g id="Layer_2-2" data-name="Layer 2"><path class="cls-1" d="M155.76,97.52a34.74,34.74,0,0,1-34.5,35H63.91a44.48,44.48,0,1,1,39.47-64.89,33.93,33.93,0,0,1,17.88-5.06A34.74,34.74,0,0,1,155.76,97.52Z"/><ellipse class="cls-2" cx="121.26" cy="97.52" rx="34.5" ry="34.98"/><polygon class="cls-3" points="106.14 120.5 101.97 144.44 110.3 144.44 106.14 162.13 125.91 137.15 116.55 137.15 124.88 120.5 106.14 120.5"/><path class="cls-4" d="M80.4,144.22a8.45,8.45,0,0,1-16.9,0c0-7.4,6.81-14.26,8.45-14.26S80.4,136.77,80.4,144.22Z"/><path class="cls-4" d="M99.4,153.22a8.45,8.45,0,0,1-16.9,0c0-7.4,6.81-14.26,8.45-14.26S99.4,145.77,99.4,153.22Z"/><rect class="cls-5" width="180" height="163"/></g></g></svg>