<svg xmlns="http://www.w3.org/2000/svg" xmlns:xlink="http://www.w3.org/1999/xlink" viewBox="0 0 180 163"><defs><style>.cls-1{fill:#e6e6e6;}.cls-2{fill:url(#linear-gradient);}.cls-3{fill:#0baeff;}.cls-4{fill:#efcc00;}.cls-5{fill:none;}</style><linearGradient id="linear-gradient" x1="120.88" y1="60.52" x2="120.88" y2="123.67" gradientUnits="userSpaceOnUse"><stop offset="0" stop-color="#fff"/><stop offset="0.71" stop-color="#eee"/><stop offset="1" stop-color="#e6e6e6"/></linearGradient></defs><g id="Layer_2" data-name="Layer 2"><g id="Layer_2-2" data-name="Layer 2"><path class="cls-1" d="M104.91,58.93a39,39,0,0,1,40.93,5.62A27.79,27.79,0,0,0,127.5,15.66a28.08,28.08,0,0,0-24.93,15.06,21.71,21.71,0,0,0-29.51,6.73A49.18,49.18,0,0,1,104.91,58.93Z"/><path class="cls-1" d="M155.38,95.5a34.74,34.74,0,0,1-34.5,35H63.53A44.48,44.48,0,1,1,103,65.58a34,34,0,0,1,17.87-5.06A34.74,34.74,0,0,1,155.38,95.5Z"/><ellipse class="cls-2" cx="120.88" cy="95.5" rx="34.5" ry="34.98"/><path class="cls-3" d="M79.4,143.22a8.45,8.45,0,0,1-16.9,0c0-7.4,6.81-14.26,8.45-14.26S79.4,135.77,79.4,143.22Z"/><path class="cls-3" d="M98.4,152.22a8.45,8.45,0,0,1-16.9,0c0-7.4,6.81-14.26,8.45-14.26S98.4,144.77,98.4,152.22Z"/><polygon class="cls-4" points="106.14 118.5 101.97 142.44 110.3 142.44 106.14 160.13 125.91 135.15 116.55 135.15 124.88 118.5 106.14 118.5"/><rect class="cls-5" width="180" height="163"/></g></g></svg>