<svg xmlns="http://www.w3.org/2000/svg" xmlns:xlink="http://www.w3.org/1999/xlink" viewBox="0 0 139 143.47"><defs><style>.cls-1{fill:gray;}.cls-2{fill:url(#linear-gradient);}.cls-3{fill:#0baeff;}.cls-4{fill:#efcc00;}</style><linearGradient id="linear-gradient" x1="103.81" y1="43.85" x2="103.81" y2="107.03" gradientUnits="userSpaceOnUse"><stop offset="0" stop-color="#999"/><stop offset="0.71" stop-color="#888"/><stop offset="1" stop-color="gray"/></linearGradient></defs><g id="Layer_2" data-name="Layer 2"><g id="Layer_2-2" data-name="Layer 2"><path class="cls-1" d="M87.41,43.28a39.07,39.07,0,0,1,40.93,5.61A27.79,27.79,0,0,0,110,0,28.09,28.09,0,0,0,85.07,15.06a21.71,21.71,0,0,0-29.51,6.73A49.19,49.19,0,0,1,87.41,43.28Z"/><path class="cls-1" d="M139,78.85a35.09,35.09,0,0,1-35.19,35H45.31C20.29,113.84,0,93.92,0,69.34s20.29-44.5,45.31-44.5A45.42,45.42,0,0,1,85.57,48.92,35.22,35.22,0,0,1,139,78.85Z"/><ellipse class="cls-2" cx="103.81" cy="78.85" rx="35.19" ry="35"/><path class="cls-3" d="M61.9,125.57a8.45,8.45,0,0,1-16.9,0c0-7.41,6.81-14.27,8.45-14.27S61.9,118.12,61.9,125.57Z"/><path class="cls-3" d="M80.9,134.57a8.45,8.45,0,0,1-16.9,0c0-7.41,6.81-14.27,8.45-14.27S80.9,127.12,80.9,134.57Z"/><polygon class="cls-4" points="88.64 101.84 84.47 125.78 92.8 125.78 88.64 143.47 108.41 118.5 99.05 118.5 107.38 101.84 88.64 101.84"/></g></g></svg>