<svg xmlns="http://www.w3.org/2000/svg" xmlns:xlink="http://www.w3.org/1999/xlink" viewBox="0 0 180 163"><defs><style>.cls-1{fill:#efcc00;}.cls-2{fill:#e6e6e6;}.cls-3{fill:url(#linear-gradient);}.cls-4{fill:none;}</style><linearGradient id="linear-gradient" x1="121.26" y1="62.55" x2="121.26" y2="125.69" gradientUnits="userSpaceOnUse"><stop offset="0" stop-color="#fff"/><stop offset="0.71" stop-color="#eee"/><stop offset="1" stop-color="#e6e6e6"/></linearGradient></defs><g id="Layer_2" data-name="Layer 2"><g id="Layer_2-2" data-name="Layer 2"><ellipse class="cls-1" cx="105.74" cy="59.09" rx="31.91" ry="31.95"/><path class="cls-1" d="M80.06,28.61l-8.3-8.09a3.23,3.23,0,0,0-2.3-.94,3.29,3.29,0,0,0-2.29,5.65l8.3,8.1a3.28,3.28,0,0,0,2.3.93,3.29,3.29,0,0,0,2.29-5.65Z"/><path class="cls-1" d="M109,7.75a3.29,3.29,0,1,0-6.58.09l.15,11.6a3.31,3.31,0,0,0,3.3,3.25h0a3.28,3.28,0,0,0,2.32-1,3.33,3.33,0,0,0,.93-2.35Z"/><path class="cls-1" d="M144.2,20.4a3.3,3.3,0,0,0-4.66.07l-8.08,8.31a3.29,3.29,0,0,0,2.36,5.59,3.26,3.26,0,0,0,2.36-1l8.08-8.32A3.3,3.3,0,0,0,144.2,20.4Z"/><path class="cls-1" d="M156.92,55.72l-11.59.15a3.3,3.3,0,0,0,0,6.6h0L157,62.31a3.3,3.3,0,0,0-.09-6.59Z"/><ellipse class="cls-1" cx="105.74" cy="59.09" rx="31.91" ry="31.95"/><path class="cls-1" d="M80.06,28.61l-8.3-8.09a3.23,3.23,0,0,0-2.3-.94,3.29,3.29,0,0,0-2.29,5.65l8.3,8.1a3.28,3.28,0,0,0,2.3.93,3.29,3.29,0,0,0,2.29-5.65Z"/><path class="cls-1" d="M109,7.75a3.29,3.29,0,1,0-6.58.09l.15,11.6a3.31,3.31,0,0,0,3.3,3.25h0a3.28,3.28,0,0,0,2.32-1,3.33,3.33,0,0,0,.93-2.35Z"/><path class="cls-1" d="M144.2,20.4a3.3,3.3,0,0,0-4.66.07l-8.08,8.31a3.29,3.29,0,0,0,2.36,5.59,3.26,3.26,0,0,0,2.36-1l8.08-8.32A3.3,3.3,0,0,0,144.2,20.4Z"/><path class="cls-2" d="M155.76,97.52a34.74,34.74,0,0,1-34.5,35H63.91a44.48,44.48,0,1,1,39.47-64.89,33.93,33.93,0,0,1,17.88-5.06A34.74,34.74,0,0,1,155.76,97.52Z"/><ellipse class="cls-3" cx="121.26" cy="97.52" rx="34.5" ry="34.98"/><rect class="cls-4" width="180" height="163"/></g></g></svg>