<?xml version="1.0" encoding="UTF-8"?>
<svg id="Layer_2" data-name="Layer 2" xmlns="http://www.w3.org/2000/svg" viewBox="0 0 140.7 140.44">
  <defs>
    <style>
      .cls-1 {
        fill: #fff;
      }

      .cls-2 {
        fill: #efcc00;
      }
    </style>
  </defs>
  <g id="Layer_2-2" data-name="Layer 2">
    <g>
      <path class="cls-1" d="m129.92,59.21l-13.65.18c-1.07.01-2.1.19-3.07.5-1.08-4.52-2.86-8.77-5.22-12.62,1-.52,1.93-1.2,2.74-2.03l9.4-9.61c2.02-2.06,3.11-4.79,3.07-7.68-.04-2.89-1.2-5.58-3.27-7.59-2.03-1.97-4.7-3.05-7.53-3.05s-5.72,1.19-7.73,3.25l-9.39,9.61c-.74.76-1.36,1.61-1.84,2.52-3.87-2.38-8.14-4.18-12.68-5.28.34-1.08.51-2.21.5-3.37l-.18-13.42c-.08-5.86-4.95-10.64-10.95-10.64h0c-5.95.08-10.73,4.98-10.66,10.93l.18,13.42c.01,1.05.19,2.07.49,3.03-4.55,1.08-8.83,2.86-12.71,5.23-.53-1.01-1.21-1.95-2.05-2.76l-9.65-9.35c-2.03-1.97-4.7-3.05-7.53-3.05s-5.71,1.19-7.73,3.25c-2.02,2.06-3.11,4.79-3.07,7.68.04,2.89,1.2,5.58,3.27,7.59l9.65,9.36c.75.73,1.59,1.34,2.5,1.81-2.38,3.85-4.17,8.09-5.27,12.61-1.04-.33-2.14-.52-3.28-.52q-.06,0-13.59.18C4.7,59.48-.08,64.38,0,70.33c.08,5.89,4.81,10.57,10.77,10.64h.09s13.56-.18,13.56-.18c1.07-.01,2.1-.19,3.07-.5,1.09,4.56,2.89,8.84,5.29,12.73-.99.51-1.91,1.17-2.72,1.98t-9.49,9.74c-4.15,4.27-4.06,11.12.2,15.26,2.02,1.96,4.68,3.05,7.49,3.05h0c2.86,0,5.57-1.12,7.65-3.14l9.52-9.78c.77-.79,1.4-1.68,1.88-2.62,3.88,2.38,8.17,4.18,12.72,5.27-.36,1.07-.56,2.22-.56,3.41q0,.06.18,13.59c.08,5.88,4.92,10.66,10.78,10.66h.15c5.89-.08,10.57-4.81,10.64-10.77l-.18-13.65c-.02-1.12-.2-2.19-.54-3.2,4.56-1.08,8.85-2.85,12.75-5.22.5,1,1.17,1.95,2,2.78t9.74,9.48c2.03,1.98,4.71,3.06,7.54,3.06s5.71-1.19,7.73-3.26c4.11-4.23,4.07-10.87-.1-15.14l-9.78-9.52c-.77-.75-1.63-1.37-2.56-1.85,2.41-3.88,4.23-8.15,5.34-12.7,1.03.33,2.13.51,3.26.51h.02q.06,0,13.59-.18c5.96-.08,10.74-4.98,10.66-10.93-.08-5.89-4.81-10.57-10.77-10.64Z"/>
      <ellipse class="cls-2" cx="70.35" cy="70.09" rx="37.09" ry="36.94"/>
      <path class="cls-2" d="m40.5,34.85l-9.65-9.36c-.72-.7-1.67-1.08-2.67-1.08s-2.03.42-2.74,1.15c-1.47,1.5-1.44,3.92.07,5.38l9.65,9.36c.72.7,1.67,1.08,2.67,1.08s2.03-.42,2.74-1.15c1.47-1.51,1.44-3.92-.07-5.38Z"/>
      <path class="cls-2" d="m74.09,10.73c-.03-2.07-1.75-3.76-3.88-3.76-2.11.03-3.8,1.76-3.78,3.86l.18,13.41c.03,2.07,1.75,3.76,3.83,3.76h.05c1.02-.01,1.98-.42,2.69-1.15.71-.73,1.1-1.69,1.08-2.71l-.18-13.41Z"/>
      <path class="cls-2" d="m115.06,25.36c-.72-.7-1.67-1.08-2.67-1.08s-2.03.42-2.74,1.15l-9.4,9.61c-1.47,1.5-1.44,3.92.07,5.38.72.7,1.67,1.08,2.67,1.08s2.02-.41,2.74-1.15l9.4-9.61c1.47-1.5,1.44-3.92-.07-5.38Z"/>
      <path class="cls-2" d="m129.84,66.19l-13.47.18c-2.11.03-3.81,1.76-3.78,3.86.03,2.07,1.75,3.76,3.83,3.76h.02s13.5-.18,13.5-.18c2.11-.03,3.81-1.76,3.78-3.86-.03-2.08-1.71-3.73-3.88-3.76Z"/>
      <path class="cls-2" d="m115.17,109.4l-9.65-9.4c-1.51-1.47-3.94-1.45-5.4.06-1.44,1.49-1.42,3.89.05,5.36h.01s9.67,9.43,9.67,9.43c1.51,1.47,3.94,1.45,5.4-.06,1.45-1.49,1.43-3.85-.09-5.4Z"/>
      <path class="cls-2" d="m74.25,129.58l-.18-13.47c-.03-2.11-1.76-3.81-3.86-3.78-2.07.03-3.76,1.75-3.76,3.83v.02s.18,13.5.18,13.5c.03,2.11,1.76,3.81,3.86,3.78,2.08-.03,3.73-1.71,3.76-3.88Z"/>
      <path class="cls-2" d="m31.04,114.91l9.4-9.65c1.47-1.51,1.45-3.94-.06-5.4-1.49-1.44-3.89-1.42-5.36.05h-.01s-9.42,9.69-9.42,9.69c-1.47,1.51-1.45,3.94.06,5.4,1.49,1.45,3.85,1.43,5.4-.09Z"/>
      <path class="cls-2" d="m10.85,73.99l13.47-.18c2.11-.03,3.81-1.76,3.78-3.86-.03-2.07-1.75-3.76-3.83-3.76h-.02s-13.5.18-13.5.18c-2.11.03-3.81,1.76-3.78,3.86.03,2.08,1.71,3.73,3.88,3.76Z"/>
      <ellipse class="cls-2" cx="70.35" cy="70.09" rx="37.09" ry="36.94"/>
      <path class="cls-2" d="m40.5,34.85l-9.65-9.36c-.72-.7-1.67-1.08-2.67-1.08s-2.03.42-2.74,1.15c-1.47,1.5-1.44,3.92.07,5.38l9.65,9.36c.72.7,1.67,1.08,2.67,1.08s2.03-.42,2.74-1.15c1.47-1.51,1.44-3.92-.07-5.38Z"/>
      <path class="cls-2" d="m74.09,10.73c-.03-2.07-1.75-3.76-3.88-3.76-2.11.03-3.8,1.76-3.78,3.86l.18,13.41c.03,2.07,1.75,3.76,3.83,3.76h.05c1.02-.01,1.98-.42,2.69-1.15.71-.73,1.1-1.69,1.08-2.71l-.18-13.41Z"/>
      <path class="cls-2" d="m115.06,25.36c-.72-.7-1.67-1.08-2.67-1.08s-2.03.42-2.74,1.15l-9.4,9.61c-1.47,1.5-1.44,3.92.07,5.38.72.7,1.67,1.08,2.67,1.08s2.02-.41,2.74-1.15l9.4-9.61c1.47-1.5,1.44-3.92-.07-5.38Z"/>
    </g>
  </g>
</svg>