<?xml version="1.0" encoding="UTF-8"?>
<svg id="Layer_2" data-name="Layer 2" xmlns="http://www.w3.org/2000/svg" xmlns:xlink="http://www.w3.org/1999/xlink" viewBox="0 0 164.74 138.61">
  <defs>
    <style>
      .cls-1 {
        fill: url(#linear-gradient-2);
      }

      .cls-2 {
        fill: #fff;
      }

      .cls-3 {
        fill: #e6e6e6;
      }

      .cls-4 {
        fill: #efcc00;
      }

      .cls-5 {
        fill: url(#linear-gradient);
      }
    </style>
    <linearGradient id="linear-gradient" x1="2163.18" y1="21.08" x2="2163.18" y2="51.15" gradientTransform="translate(2272.63) rotate(-180) scale(1 -1)" gradientUnits="userSpaceOnUse">
      <stop offset="0" stop-color="#fff"/>
      <stop offset=".71" stop-color="#eee"/>
      <stop offset="1" stop-color="#e6e6e6"/>
    </linearGradient>
    <linearGradient id="linear-gradient-2" x1="92.44" y1="73.51" x2="92.44" y2="126.86" gradientTransform="matrix(1,0,0,1,0,0)" xlink:href="#linear-gradient"/>
  </defs>
  <g id="Layer_2-2" data-name="Layer 2">
    <g>
      <path class="cls-2" d="m137.23,6.03c-8.39,0-16.15,3.72-21.32,9.98-.06-.02-.13-.03-.19-.05-.4-.12-.81-.22-1.22-.31-.09-.02-.17-.04-.26-.06-.48-.1-.97-.19-1.47-.27-.06,0-.13-.02-.19-.02-.42-.06-.85-.1-1.29-.14-.12,0-.24-.02-.37-.03-.49-.03-.98-.05-1.48-.05-1.42,0-2.82.14-4.17.39l-.09-6.32c-.07-5.04-4.26-9.15-9.42-9.15h0c-5.12.07-9.23,4.29-9.17,9.4l.16,11.54c.01.91.16,1.78.42,2.61-3.91.93-7.6,2.46-10.94,4.5-.45-.87-1.04-1.68-1.77-2.38l-8.3-8.05c-1.75-1.69-4.05-2.63-6.48-2.63s-4.92,1.02-6.65,2.8c-1.74,1.78-2.67,4.12-2.64,6.6.03,2.48,1.03,4.8,2.82,6.53l8.3,8.05c.65.63,1.37,1.15,2.15,1.56-2.51,4.06-4.27,8.63-5.09,13.52-4.69-1.68-9.7-2.59-14.87-2.59C19.62,51.46,0,71.01,0,95.04c0,22.13,16.63,40.45,38.09,43.22v.36h54.35c19.47,0,35.3-15.95,35.3-35.55,0-6.09-1.53-11.83-4.22-16.84,4.45-4.7,7.71-10.53,9.29-17.01.89.28,1.83.44,2.8.44h.02s.05,0,11.69-.16c5.12-.07,9.23-4.29,9.17-9.4-.03-2.17-.8-4.15-2.07-5.71,6.28-4.99,10.31-12.61,10.31-21.17,0-14.99-12.34-27.18-27.51-27.18Z"/>
      <g>
        <g>
          <ellipse class="cls-4" cx="95.98" cy="60.29" rx="31.91" ry="31.78"/>
          <path class="cls-4" d="m70.31,29.98l-8.3-8.05c-.62-.6-1.44-.93-2.3-.93s-1.75.36-2.36.99c-1.27,1.29-1.24,3.37.06,4.63l8.3,8.05c.62.6,1.43.93,2.3.93s1.74-.36,2.36-.99c1.27-1.3,1.24-3.37-.06-4.63Z"/>
          <path class="cls-4" d="m99.2,9.23c-.02-1.78-1.5-3.23-3.34-3.23-1.81.02-3.27,1.51-3.25,3.32l.16,11.54c.02,1.78,1.5,3.23,3.29,3.23h.04c.88-.01,1.7-.36,2.32-.99.61-.63.94-1.45.93-2.33l-.16-11.54Z"/>
          <path class="cls-4" d="m134.45,21.82c-.62-.6-1.44-.93-2.3-.93s-1.75.36-2.36.99l-8.08,8.27c-1.27,1.29-1.24,3.37.06,4.63.62.6,1.44.93,2.3.93s1.74-.35,2.36-.99l8.08-8.27c1.27-1.29,1.24-3.37-.06-4.63Z"/>
          <path class="cls-4" d="m147.16,56.94l-11.59.16c-1.82.02-3.27,1.51-3.25,3.32.02,1.78,1.5,3.23,3.29,3.23h.02s11.61-.16,11.61-.16c1.82-.02,3.27-1.51,3.25-3.32-.02-1.79-1.47-3.21-3.34-3.23Z"/>
          <ellipse class="cls-4" cx="95.98" cy="60.29" rx="31.91" ry="31.78"/>
          <path class="cls-4" d="m70.31,29.98l-8.3-8.05c-.62-.6-1.44-.93-2.3-.93s-1.75.36-2.36.99c-1.27,1.29-1.24,3.37.06,4.63l8.3,8.05c.62.6,1.43.93,2.3.93s1.74-.36,2.36-.99c1.27-1.3,1.24-3.37-.06-4.63Z"/>
          <path class="cls-4" d="m99.2,9.23c-.02-1.78-1.5-3.23-3.34-3.23-1.81.02-3.27,1.51-3.25,3.32l.16,11.54c.02,1.78,1.5,3.23,3.29,3.23h.04c.88-.01,1.7-.36,2.32-.99.61-.63.94-1.45.93-2.33l-.16-11.54Z"/>
          <path class="cls-4" d="m134.45,21.82c-.62-.6-1.44-.93-2.3-.93s-1.75.36-2.36.99l-8.08,8.27c-1.27,1.29-1.24,3.37.06,4.63.62.6,1.44.93,2.3.93s1.74-.35,2.36-.99l8.08-8.27c1.27-1.29,1.24-3.37-.06-4.63Z"/>
        </g>
        <g>
          <path class="cls-3" d="m92.74,37.73c0,9.2,7.48,16.66,16.71,16.66h27.78c11.88,0,21.51-9.48,21.51-21.18s-9.63-21.18-21.51-21.18c-8.32,0-15.54,4.65-19.12,11.46-2.53-1.53-5.49-2.41-8.66-2.41-9.23,0-16.71,7.46-16.71,16.66Z"/>
          <ellipse class="cls-5" cx="109.45" cy="37.73" rx="16.71" ry="16.66"/>
        </g>
        <g>
          <path class="cls-3" d="m121.74,103.06c0,16.32-13.12,29.55-29.3,29.55h-48.71c-20.83,0-37.73-16.82-37.73-37.58s16.89-37.58,37.73-37.58c14.59,0,27.25,8.25,33.53,20.33,4.43-2.71,9.63-4.28,15.19-4.28,16.18,0,29.3,13.23,29.3,29.55Z"/>
          <ellipse class="cls-1" cx="92.44" cy="103.06" rx="29.3" ry="29.55"/>
        </g>
      </g>
    </g>
  </g>
</svg>