<?xml version="1.0" encoding="UTF-8"?>
<svg id="Layer_2" data-name="Layer 2" xmlns="http://www.w3.org/2000/svg" viewBox="0 0 508.86 434.48">
  <g id="Layer_1-2" data-name="Layer 1">
    <g>
      <path d="m497.17,246.61c-19.76-12.68-39.61-25.23-59.42-37.83-2.67-1.7-5.35-3.4-8.02-5.1,2.39,4.47,3.74,9.52,3.74,14.77,0,13.05-8.21,24.92-20.43,29.53l-21.56,8.09-8.07,21.51c-4.64,12.28-16.51,20.48-29.55,20.48s-24.91-8.21-29.53-20.42l-8.09-21.57-21.51-8.07c-9.6-3.62-16.71-11.67-19.36-21.25l-74.15,74.17c-9.94,9.89-23.07,15.3-37.01,15.3s-27.1-5.43-36.97-15.3l-19.68-19.68c-20.36-20.47-20.34-53.64,0-73.98l56.32-57.35c-2.87,2.09-101.85,65.35-151.77,96.54-8.45,5.27-13.25,13.73-11.86,23.56,2.5,7.63,7.9,12.47,14.56,16.7,74.57,47.28,149.11,94.6,223.43,142.29,11.57,7.43,21.35,7.27,32.88-.13,74.18-47.6,148.63-94.77,222.98-142.08,17.46-8.93,20.63-29.21,3.08-40.16Z"/>
      <path d="m232.51,24.29l-21.45,8.02c-1.71.63-2.84,2.28-2.84,4.1s1.14,3.47,2.84,4.1l21.45,8.02,8.02,21.45c.63,1.71,2.28,2.84,4.1,2.84s3.47-1.14,4.1-2.84l8.02-21.45,21.45-8.02c1.71-.63,2.84-2.28,2.84-4.1s-1.14-3.47-2.84-4.1l-21.45-8.02-8.02-21.45c-.63-1.71-2.28-2.84-4.1-2.84s-3.47,1.14-4.1,2.84l-8.02,21.45Zm-107.29,200.64c-10.64,10.64-10.64,27.93,0,38.63l19.68,19.68c10.64,10.64,27.93,10.64,38.63,0l216.91-216.97c10.64-10.64,10.64-27.93,0-38.63l-19.68-19.63c-10.64-10.64-27.93-10.64-38.63,0L125.23,224.93ZM374.67,46.99l-59.73,59.73-13.25-13.25,59.73-59.73s13.25,13.25,13.25,13.25Zm-271.41,19.68c-2.56.97-4.27,3.41-4.27,6.14s1.71,5.18,4.27,6.14l32.14,12.06,12.06,32.14c.97,2.56,3.41,4.27,6.14,4.27s5.18-1.71,6.14-4.27l12.06-32.14,32.14-12.06c2.56-.97,4.27-3.41,4.27-6.14s-1.71-5.18-4.27-6.14l-32.14-12.06-12.06-32.14c-.97-2.56-3.41-4.27-6.14-4.27s-5.18,1.71-6.14,4.27l-12.06,32.14-32.14,12.06Zm200.24,145.63c-2.56.97-4.27,3.41-4.27,6.14s1.71,5.18,4.27,6.14l32.14,12.06,12.06,32.14c.97,2.56,3.41,4.27,6.14,4.27s5.18-1.71,6.14-4.27l12.06-32.14,32.14-12.06c2.56-.97,4.27-3.41,4.27-6.14s-1.71-5.18-4.27-6.14l-32.14-12.06-12.06-32.14c-.97-2.56-3.41-4.27-6.14-4.27s-5.18,1.71-6.14,4.27l-12.06,32.14-32.14,12.06Z"/>
    </g>
  </g>
</svg>