<?xml version="1.0" encoding="UTF-8"?>
<svg id="Layer_2" data-name="Layer 2" xmlns="http://www.w3.org/2000/svg" viewBox="0 0 512 512">
  <g id="Layer_1-2" data-name="Layer 1">
    <g>
      <path d="m257.95,279.85c-.9-1.2-1.5-2.2-1.7-2.8-.1-.3-.2-.5-.2-.6V112.02C256.05,50.11,205.94,0,144.03,0S32.01,50.21,32.01,112.02v164.53c0,.1-.1.3-.2.6-.2.6-.8,1.6-1.7,2.8C11.2,304.26,0,334.87,0,368.07c0,79.52,64.51,143.93,144.03,143.93s144.03-64.51,144.03-144.03c0-33.11-11.2-63.71-30.11-88.12Zm-113.92,168.23c-44.21,0-80.02-35.81-80.02-80.02,0-18.5,6.2-35.41,16.7-49.01,8.2-10.6,15.3-25.2,15.3-42.51V112.02c0-26.51,21.5-48.01,48.01-48.01s48.01,21.5,48.01,48.01v164.63c0,17.3,7.1,31.91,15.3,42.51,10.5,13.5,16.7,30.41,16.7,48.91,0,44.21-35.81,80.02-80.02,80.02Z"/>
      <g>
        <path d="m436.55,398.2c9.62,0,17.41-7.8,17.41-17.41v-137.9l28.32,28.32c6.65,6.34,17.03,6.6,23.97.58,3.37-3.11,5.31-7.48,5.34-12.07.07-5.28-2.03-10.36-5.8-14.05l-32.15-32.1c-11.61-11.61-22.81-17.7-34.42-18.4-12.98-.84-25.68,3.98-34.82,13.23l-37.49,37.26c-6.85,6.67-7.43,17.48-1.33,24.84,3.19,3.57,7.7,5.66,12.48,5.8,4.79.19,9.43-1.66,12.77-5.11l28.32-28.32v137.9c0,9.62,7.8,17.41,17.41,17.41Z"/>
        <path d="m494.59,113.8h-121.88c-9.62,0-17.41,7.8-17.41,17.41s7.8,17.41,17.41,17.41h121.88c9.62,0,17.41-7.8,17.41-17.41s-7.8-17.41-17.41-17.41Z"/>
      </g>
    </g>
  </g>
</svg>