<?xml version="1.0" encoding="UTF-8"?>
<svg id="Layer_2" data-name="Layer 2" xmlns="http://www.w3.org/2000/svg" xmlns:xlink="http://www.w3.org/1999/xlink" viewBox="0 0 152.75 139.3">
  <defs>
    <style>
      .cls-1 {
        fill: #fff;
      }

      .cls-2 {
        fill: #e6e6e6;
      }

      .cls-3 {
        fill: #efcc00;
      }

      .cls-4 {
        fill: url(#linear-gradient);
      }
    </style>
    <linearGradient id="linear-gradient" x1="107.76" y1="63.73" x2="107.76" y2="126.53" gradientUnits="userSpaceOnUse">
      <stop offset="0" stop-color="#fff"/>
      <stop offset=".71" stop-color="#eee"/>
      <stop offset="1" stop-color="#e6e6e6"/>
    </linearGradient>
  </defs>
  <g id="Layer_2-2" data-name="Layer 2">
    <g>
      <path class="cls-1" d="m44.84,139v.3h62.92c22.33,0,40.5-18.3,40.5-40.79,0-11.3-4.59-21.53-11.98-28.93,1.69-.02,4.04-.05,7.31-.1,5.12-.07,9.23-4.29,9.17-9.4-.07-5.07-4.14-9.09-9.27-9.15l-11.74.16c-.92.01-1.81.16-2.64.43-.93-3.88-2.46-7.54-4.49-10.86.86-.45,1.66-1.03,2.36-1.75l8.08-8.27c1.74-1.78,2.67-4.12,2.64-6.61-.03-2.48-1.03-4.8-2.81-6.53-1.74-1.69-4.04-2.62-6.48-2.62s-4.92,1.02-6.65,2.8l-8.08,8.27c-.64.65-1.17,1.38-1.58,2.17-3.33-2.05-7-3.59-10.91-4.54.29-.92.44-1.9.43-2.89l-.16-11.54c-.07-5.04-4.26-9.15-9.42-9.15h0c-5.12.07-9.23,4.29-9.17,9.4l.16,11.54c.01.91.16,1.78.42,2.61-3.91.93-7.6,2.46-10.94,4.5-.45-.87-1.04-1.68-1.77-2.38l-8.3-8.05c-1.74-1.69-4.05-2.63-6.48-2.63s-4.92,1.02-6.65,2.8c-1.74,1.78-2.67,4.12-2.64,6.6.03,2.48,1.03,4.8,2.82,6.53l8.3,8.05c.18.18.37.34.56.5-2.6-.41-5.25-.64-7.94-.64C22.62,38.83,0,61.37,0,89.07c0,25.82,19.66,47.16,44.84,49.93Z"/>
      <g>
        <g>
          <ellipse class="cls-3" cx="92.24" cy="60.29" rx="31.91" ry="31.78"/>
          <path class="cls-3" d="m66.56,29.98l-8.3-8.05c-.62-.6-1.44-.93-2.3-.93s-1.75.36-2.36.99c-1.27,1.29-1.24,3.37.06,4.63l8.3,8.05c.62.6,1.43.93,2.3.93s1.74-.36,2.36-.99c1.27-1.3,1.24-3.37-.06-4.63Z"/>
          <path class="cls-3" d="m95.45,9.23c-.02-1.78-1.5-3.23-3.34-3.23-1.81.02-3.27,1.51-3.25,3.32l.16,11.54c.02,1.78,1.5,3.23,3.29,3.23h.04c.88-.01,1.7-.36,2.32-.99.61-.63.94-1.45.93-2.33l-.16-11.54Z"/>
          <path class="cls-3" d="m130.7,21.82c-.62-.6-1.44-.93-2.3-.93s-1.75.36-2.36.99l-8.08,8.27c-1.27,1.29-1.24,3.37.06,4.63.62.6,1.44.93,2.3.93s1.74-.35,2.36-.99l8.08-8.27c1.27-1.29,1.24-3.37-.06-4.63Z"/>
          <path class="cls-3" d="m143.42,56.94l-11.59.16c-1.82.02-3.27,1.51-3.25,3.32.02,1.78,1.5,3.23,3.29,3.23h.02s11.61-.16,11.61-.16c1.82-.02,3.27-1.51,3.25-3.32-.02-1.79-1.47-3.21-3.34-3.23Z"/>
          <ellipse class="cls-3" cx="92.24" cy="60.29" rx="31.91" ry="31.78"/>
          <path class="cls-3" d="m66.56,29.98l-8.3-8.05c-.62-.6-1.44-.93-2.3-.93s-1.75.36-2.36.99c-1.27,1.29-1.24,3.37.06,4.63l8.3,8.05c.62.6,1.43.93,2.3.93s1.74-.36,2.36-.99c1.27-1.3,1.24-3.37-.06-4.63Z"/>
          <path class="cls-3" d="m95.45,9.23c-.02-1.78-1.5-3.23-3.34-3.23-1.81.02-3.27,1.51-3.25,3.32l.16,11.54c.02,1.78,1.5,3.23,3.29,3.23h.04c.88-.01,1.7-.36,2.32-.99.61-.63.94-1.45.93-2.33l-.16-11.54Z"/>
          <path class="cls-3" d="m130.7,21.82c-.62-.6-1.44-.93-2.3-.93s-1.75.36-2.36.99l-8.08,8.27c-1.27,1.29-1.24,3.37.06,4.63.62.6,1.44.93,2.3.93s1.74-.35,2.36-.99l8.08-8.27c1.27-1.29,1.24-3.37-.06-4.63Z"/>
        </g>
        <g>
          <path class="cls-2" d="m142.26,98.52c0,19.21-15.45,34.79-34.5,34.79h-57.35c-24.53,0-44.41-19.81-44.41-44.23s19.89-44.23,44.41-44.23c17.18,0,32.08,9.71,39.47,23.93,5.22-3.2,11.33-5.03,17.88-5.03,19.05,0,34.5,15.57,34.5,34.79Z"/>
          <ellipse class="cls-4" cx="107.76" cy="98.52" rx="34.5" ry="34.79"/>
        </g>
      </g>
    </g>
  </g>
</svg>