<?xml version="1.0" encoding="UTF-8"?>
<svg id="Layer_2" data-name="Layer 2" xmlns="http://www.w3.org/2000/svg" xmlns:xlink="http://www.w3.org/1999/xlink" viewBox="0 0 166.1 168.28">
  <defs>
    <style>
      .cls-1 {
        fill: url(#linear-gradient-2);
      }

      .cls-2 {
        fill: #fff;
      }

      .cls-3 {
        fill: #efcc00;
      }

      .cls-4 {
        fill: gray;
      }

      .cls-5 {
        fill: url(#linear-gradient);
      }

      .cls-6 {
        fill: #0baeff;
      }
    </style>
    <linearGradient id="linear-gradient" x1="1093.09" y1="15.05" x2="1093.09" y2="45.12" gradientTransform="translate(1191.1) rotate(-180) scale(1 -1)" gradientUnits="userSpaceOnUse">
      <stop offset="0" stop-color="#999"/>
      <stop offset=".71" stop-color="#888"/>
      <stop offset="1" stop-color="gray"/>
    </linearGradient>
    <linearGradient id="linear-gradient-2" x1="103" y1="54.55" x2="103" y2="107.9" gradientTransform="matrix(1,0,0,1,0,0)" xlink:href="#linear-gradient"/>
  </defs>
  <g id="Layer_2-2" data-name="Layer 2">
    <g>
      <path class="cls-2" d="m165.5,118.19c-1-2.07-3.1-3.39-5.4-3.39h-4.33l8.14-16.24c.93-1.86.83-4.07-.26-5.84s-3.02-2.85-5.11-2.85h-20.71c.31-1.88.47-3.8.47-5.76,0-12.43-6.37-23.39-16-29.74h3.49c15.17,0,27.51-12.19,27.51-27.18S140.96,0,125.79,0c-8.39,0-16.15,3.72-21.32,9.98-.07-.02-.13-.03-.2-.05-.4-.11-.8-.22-1.2-.31-.09-.02-.18-.04-.28-.06-.48-.1-.97-.19-1.46-.27-.07,0-.14-.02-.2-.03-.42-.06-.84-.1-1.27-.14-.12-.01-.25-.02-.37-.03-.49-.03-.98-.05-1.48-.05-12.52,0-22.71,10.16-22.71,22.66,0,2.34.36,4.6,1.02,6.72-6.56-3.81-14.12-5.92-22.04-5.92-24.11,0-43.73,19.55-43.73,43.58,0,4.33.65,8.51,1.83,12.46-6.34,6.22-12.39,16.97-12.39,27.33,0,12.02,9.82,21.8,21.89,21.8,3.32,0,6.47-.74,9.29-2.07-.07.98-.12,1.98-.12,2.98,0,16.38,13.38,29.7,29.83,29.7s29.83-13.32,29.83-29.7c0-1-.05-1.99-.13-2.99,2.82,1.33,5.97,2.07,9.3,2.07,8.18,0,15.33-4.5,19.08-11.14l-.72,4.15c-.3,1.75.18,3.54,1.32,4.89,1.14,1.36,2.82,2.14,4.59,2.14h4.92l-4.51,19.1c-.65,2.73.69,5.55,3.22,6.78.84.41,1.73.6,2.61.6,1.79,0,3.53-.8,4.7-2.27l29.69-37.4c1.43-1.8,1.71-4.27.7-6.34Z"/>
      <g>
        <g>
          <path class="cls-4" d="m81.3,31.7c0,9.2,7.48,16.66,16.71,16.66h27.78c11.88,0,21.51-9.48,21.51-21.18s-9.63-21.18-21.51-21.18c-8.32,0-15.54,4.65-19.12,11.46-2.53-1.53-5.49-2.41-8.66-2.41-9.23,0-16.71,7.46-16.71,16.66Z"/>
          <ellipse class="cls-5" cx="98.01" cy="31.7" rx="16.71" ry="16.66"/>
          <path class="cls-4" d="m132.3,84.1c0,16.32-13.12,29.55-29.3,29.55h-48.71c-20.83,0-37.73-16.82-37.73-37.58s16.89-37.58,37.73-37.58c14.59,0,27.25,8.25,33.53,20.33,4.43-2.71,9.63-4.28,15.19-4.28,16.18,0,29.3,13.23,29.3,29.55Z"/>
          <ellipse class="cls-1" cx="103" cy="84.1" rx="29.3" ry="29.55"/>
        </g>
        <g>
          <polygon class="cls-3" points="130.41 95.86 124.16 131.71 136.66 131.71 130.41 158.19 160.1 120.79 146.04 120.79 158.54 95.86 130.41 95.86"/>
          <g>
            <path class="cls-6" d="m84.72,138.58c0,13.09-10.67,23.7-23.83,23.7s-23.83-10.61-23.83-23.7c0-20.77,19.22-40.01,23.83-40.01s23.83,19.11,23.83,40.01Z"/>
            <path class="cls-6" d="m37.78,115.87c0,8.73-7.11,15.8-15.89,15.8s-15.89-7.07-15.89-15.8c0-13.85,12.81-26.68,15.89-26.68s15.89,12.74,15.89,26.68Z"/>
            <path class="cls-6" d="m115.78,115.87c0,8.73-7.11,15.8-15.89,15.8s-15.89-7.07-15.89-15.8c0-13.85,12.81-26.68,15.89-26.68s15.89,12.74,15.89,26.68Z"/>
          </g>
        </g>
      </g>
    </g>
  </g>
</svg>