<?xml version="1.0" encoding="UTF-8"?><svg id="Layer_2" xmlns="http://www.w3.org/2000/svg" xmlns:xlink="http://www.w3.org/1999/xlink" viewBox="0 0 150.75 182.29"><defs><style>.cls-1{fill:#fff;}.cls-2{fill:#efcd17;}.cls-3{fill:#e6e6e5;}.cls-4{fill:#49a8de;}.cls-5{fill:url(#linear-gradient);}</style><linearGradient id="linear-gradient" x1="106.76" y1="62.73" x2="106.76" y2="125.53" gradientUnits="userSpaceOnUse"><stop offset="0" stop-color="#fff"/><stop offset=".68" stop-color="#efefee"/><stop offset="1" stop-color="#e6e6e5"/></linearGradient></defs><g id="Layer_1-2"><path class="cls-1" d="m150.75,59.1c-.06-4.52-3.7-8.11-8.28-8.16l-11.71.16c-1.19.02-2.33.29-3.37.77-.95-4.59-2.76-8.86-5.25-12.65,1.16-.42,2.23-1.09,3.12-2l8.08-8.27c1.55-1.58,2.39-3.68,2.36-5.89-.03-2.22-.92-4.28-2.51-5.83-1.56-1.51-3.61-2.34-5.78-2.34s-4.39.91-5.94,2.5l-8.08,8.27c-.83.85-1.45,1.86-1.85,2.94-3.8-2.51-8.09-4.33-12.7-5.3.52-1.11.79-2.33.78-3.6l-.16-11.54c-.06-4.5-3.8-8.16-8.41-8.16h0c-4.57.06-8.24,3.82-8.18,8.39l.16,11.54c.02,1.19.29,2.32.77,3.34-4.62.95-8.91,2.76-12.73,5.25-.42-1.17-1.1-2.24-2.02-3.13l-8.3-8.05c-1.56-1.51-3.61-2.34-5.78-2.34s-4.39.91-5.94,2.5c-1.55,1.58-2.38,3.68-2.35,5.89.03,2.22.92,4.28,2.51,5.82l8.3,8.05c.85.82,1.85,1.44,2.93,1.83-.19.29-.38.57-.56.86-3.39-.73-6.88-1.12-10.45-1.12C22.17,38.83,0,60.92,0,88.07c0,25.61,19.73,46.72,44.84,49.03v.21h1.84c-2.01,5.25-3.26,10.8-3.26,16.29,0,15.82,12.93,28.7,28.83,28.7s28.83-12.87,28.83-28.7c0-5.48-1.25-11.04-3.26-16.29h8.95c21.78,0,39.5-17.85,39.5-39.79,0-11.9-5.22-22.59-13.47-29.89,1.57-.02,4.45-.06,9.79-.13,4.57-.06,8.24-3.83,8.18-8.39Z"/><ellipse class="cls-2" cx="91.24" cy="59.29" rx="31.91" ry="31.78"/><path class="cls-2" d="m65.56,28.98l-8.3-8.05c-.62-.6-1.44-.93-2.3-.93s-1.75.36-2.36.99c-1.27,1.29-1.24,3.37.06,4.63l8.3,8.05c.62.6,1.43.93,2.3.93s1.74-.36,2.36-.99c1.27-1.3,1.24-3.37-.06-4.63Z"/><path class="cls-2" d="m94.45,8.23c-.02-1.78-1.5-3.23-3.34-3.23-1.81.02-3.27,1.51-3.25,3.32l.16,11.54c.02,1.78,1.5,3.23,3.29,3.23h.04c.88-.01,1.7-.36,2.32-.99.61-.63.94-1.45.93-2.33l-.16-11.54Z"/><path class="cls-2" d="m129.7,20.82c-.62-.6-1.44-.93-2.3-.93s-1.75.36-2.36.99l-8.08,8.27c-1.27,1.29-1.24,3.37.06,4.63.62.6,1.44.93,2.3.93s1.74-.35,2.36-.99l8.08-8.27c1.27-1.29,1.24-3.37-.06-4.63Z"/><path class="cls-2" d="m142.42,55.94l-11.59.16c-1.82.02-3.27,1.51-3.25,3.32.02,1.78,1.5,3.23,3.29,3.23h.02s11.61-.16,11.61-.16c1.82-.02,3.27-1.51,3.25-3.32-.02-1.79-1.47-3.21-3.34-3.23Z"/><ellipse class="cls-2" cx="91.24" cy="59.29" rx="31.91" ry="31.78"/><path class="cls-2" d="m65.56,28.98l-8.3-8.05c-.62-.6-1.44-.93-2.3-.93s-1.75.36-2.36.99c-1.27,1.29-1.24,3.37.06,4.63l8.3,8.05c.62.6,1.43.93,2.3.93s1.74-.36,2.36-.99c1.27-1.3,1.24-3.37-.06-4.63Z"/><path class="cls-2" d="m94.45,8.23c-.02-1.78-1.5-3.23-3.34-3.23-1.81.02-3.27,1.51-3.25,3.32l.16,11.54c.02,1.78,1.5,3.23,3.29,3.23h.04c.88-.01,1.7-.36,2.32-.99.61-.63.94-1.45.93-2.33l-.16-11.54Z"/><path class="cls-2" d="m129.7,20.82c-.62-.6-1.44-.93-2.3-.93s-1.75.36-2.36.99l-8.08,8.27c-1.27,1.29-1.24,3.37.06,4.63.62.6,1.44.93,2.3.93s1.74-.35,2.36-.99l8.08-8.27c1.27-1.29,1.24-3.37-.06-4.63Z"/><path class="cls-3" d="m141.26,97.52c0,19.21-15.45,34.79-34.5,34.79h-57.35c-24.53,0-44.41-19.81-44.41-44.23s19.89-44.23,44.41-44.23c17.18,0,32.08,9.71,39.47,23.93,5.22-3.2,11.33-5.03,17.88-5.03,19.05,0,34.5,15.57,34.5,34.79Z"/><ellipse class="cls-5" cx="106.76" cy="97.52" rx="34.5" ry="34.79"/><path class="cls-4" d="m96.08,153.59c0,13.09-10.67,23.7-23.83,23.7s-23.83-10.61-23.83-23.7c0-20.77,19.22-40.01,23.83-40.01s23.83,19.11,23.83,40.01Z"/></g></svg>