<?xml version="1.0" encoding="UTF-8"?>
<svg id="Layer_2" data-name="Layer 2" xmlns="http://www.w3.org/2000/svg" xmlns:xlink="http://www.w3.org/1999/xlink" viewBox="0 0 148.26 146.06">
  <defs>
    <style>
      .cls-1 {
        fill: #fff;
      }

      .cls-2 {
        fill: #e6e6e6;
      }

      .cls-3 {
        fill: url(#linear-gradient);
      }

      .cls-4 {
        fill: #0baeff;
      }
    </style>
    <linearGradient id="linear-gradient" x1="107.76" y1="24.9" x2="107.76" y2="87.7" gradientUnits="userSpaceOnUse">
      <stop offset="0" stop-color="#fff"/>
      <stop offset=".71" stop-color="#eee"/>
      <stop offset="1" stop-color="#e6e6e6"/>
    </linearGradient>
  </defs>
  <g id="Layer_2-2" data-name="Layer 2">
    <g>
      <path class="cls-1" d="m147.79,53.48c-2.87-18.88-18.65-33.54-37.95-34.53-.69-.04-1.38-.05-2.08-.05s-1.36.02-2.04.05c-.38.02-.76.06-1.14.09-.29.02-.58.04-.87.07-.47.05-.94.11-1.41.18-.19.03-.39.05-.58.07-.48.07-.96.16-1.44.25-.18.03-.36.06-.54.1-.44.09-.88.2-1.31.3-.22.05-.44.1-.65.15-.36.09-.72.2-1.08.3-.29.08-.59.16-.88.25-.25.08-.49.16-.73.25-.4.13-.8.26-1.2.41-.09.03-.18.07-.27.11-.49.18-.98.37-1.46.57C82.83,8.31,67.32,0,50.41,0,22.62,0,0,22.54,0,50.23c0,25.83,19.66,47.16,44.84,49.93v.3h.79c-1.76,4.77-3.01,10.16-3.01,15.89,0,16.38,13.38,29.7,29.83,29.7s29.83-13.32,29.83-29.7c0-5.39-1.14-10.78-2.99-15.89h8.48c.7,0,1.39-.02,2.08-.05,19.3-.99,35.07-15.65,37.95-34.53.31-2.02.47-4.09.47-6.2s-.16-4.18-.47-6.2Z"/>
      <g>
        <g>
          <path class="cls-2" d="m142.26,59.68c0,19.21-15.45,34.79-34.5,34.79h-57.35c-24.53,0-44.41-19.81-44.41-44.23S25.89,6,50.41,6c17.18,0,32.08,9.71,39.47,23.93,5.22-3.2,11.33-5.03,17.88-5.03,19.05,0,34.5,15.57,34.5,34.79Z"/>
          <ellipse class="cls-3" cx="107.76" cy="59.68" rx="34.5" ry="34.79"/>
        </g>
        <path class="cls-4" d="m96.28,116.36c0,13.09-10.67,23.7-23.83,23.7s-23.83-10.61-23.83-23.7c0-20.77,19.22-40.01,23.83-40.01s23.83,19.11,23.83,40.01Z"/>
      </g>
    </g>
  </g>
</svg>